<svg width="688" height="624" fill="none" xmlns="http://www.w3.org/2000/svg"><path opacity=".4" d="M624.6 75.4C479.8 6.5 416 195 316.1 226c-99.7 45.4-195.9-7.7-255.3 37.8C-33.3 335.7 8 462 68.3 515c86.4 76.2 240 48.8 398.7-33.5C666 378.3 751.5 135.8 624.6 75.5Z" fill="#98C3E8"/><path opacity=".2" d="M143.5 150.5c5 12.5-10 32-31.5 38.5-18.5 5.6-36.5 5-41.5-8-4.4-11.5 9.5-24 25.5-30.5s42.5-12.5 47.5 0ZM307 125c-3.9-10 9.8-33.1 26.8-38.2 14.6-4.4 28.3-14.6 32.2-4.3 3.4 9.1-7 29.8-19.7 35-12.7 5-35.4 17.4-39.3 7.5ZM295.8 617.2c-3.9-10 8-25.3 25-30.4 14.6-4.4 28.8-3.8 32.7 6.5 3.4 9.2-7.6 19-20.2 24.1-12.7 5.1-33.6 9.8-37.5-.2ZM471.6 566.5c-8.1-19 17.7-61.3 53-71 30.3-8.3 79.4 8.8 87.5 28.5 7.1 17.6-39.7 14.7-66 24.4-26.3 9.7-66.4 37.2-74.5 18.1Z" fill="#98C3E8"/><mask id="a" style="mask-type:alpha" maskUnits="userSpaceOnUse" x="20" y="64" width="648" height="490"><path d="M607 77C466.4 14.8 410 197.4 315 230c-94.4 46.3-188-2-243.7 43.4-88.4 71.9-45.5 191.8 13.6 241 84.8 70.7 231.3 40.1 381.4-43.3C654.4 366.5 730.2 131.4 607 76.9Z" fill="#98C3E8"/></mask><g mask="url(#a)"><path fill="url(#b)" d="M-85.1-16.6h805.2v681.5H-85.1z"/><path d="M16.5 200.5C90.3 237.7 173 341.9 173 391.7c0 61.2-129.8 155-189.3 208.2l508 32.8c-18.1-81-63.8-261-36-301 36-51.7 181.5-39.1 263.1-29.6L741 71.7c-39.8 16.7-128.7 64.4-177.3 51.8-45-11.7-131.3-62-167.9-94" stroke="#fff" stroke-opacity=".2" stroke-width="15"/><path d="M206.4 143.7c20.2 105.1 75.1 298 133.2 227.8 72.5-87.7 130-201.3 184.2-126.2 43.5 60 107.3 178.5 133.8 230.3" stroke="#fff" stroke-opacity=".2" stroke-width="15"/><path fill-rule="evenodd" clip-rule="evenodd" d="M434 205a8 8 0 1 1-16 0 8 8 0 0 1 16 0ZM103 378a8 8 0 1 0 0-16 8 8 0 0 0 0 16Zm174 102a8 8 0 1 0 0-16 8 8 0 0 0 0 16Zm274-118a8 8 0 1 0 0-16 8 8 0 0 0 0 16Z" fill="#fff" fill-opacity=".6"/><circle cx="73" cy="457" r="18" stroke="#fff" stroke-opacity=".4" stroke-width="8"/><circle cx="653" cy="180" r="18" stroke="#fff" stroke-opacity=".4" stroke-width="8"/><circle cx="403" cy="413" r="18" stroke="#fff" stroke-opacity=".4" stroke-width="8"/></g><g filter="url(#c)"><rect x="453" y="134" width="88" height="88" rx="10" fill="#fff"/></g><path d="M493 194v-12h8v12h10v-16h6l-20-18-20 18h6v16h10Z" fill="#5A98D0"/><g filter="url(#d)"><path d="M440.4 10.8H413c-3.8 0-6.9 2.2-6.9 5v20.5c0 2.8 3.1 5.1 6.9 5.1h27.4c3.8 0 6.9-2.3 6.9-5.1V15.9c0-2.9-3-5.1-6.9-5.1Z" fill="#56CCF2"/></g><path d="M437 25h-4.2l3.3-2.4-1.4-1L430 25h-2v-1.5l4.7-3.5-1.5-1-3.2 2.4v-3.1h-2v3l-3.2-2.3-1.5 1 4.7 3.5V25h-2l-4.7-3.5-1.4 1 3.3 2.5H417v1.5h4.2l-3.3 2.4 1.4 1.1 4.7-3.5h2V28l-4.7 3.5 1.5 1 3.2-2.4v3.2h2V30l3.2 2.5 1.5-1.1L428 28v-1.5h2l4.7 3.5 1.4-1-3.3-2.5h4.2V25Z" fill="#fff"/><g filter="url(#e)"><path d="M614.3 88h-27.4c-3.8 0-6.9 2.3-6.9 5.1v20.5c0 2.8 3 5 6.9 5h27.4c3.8 0 6.8-2.2 6.8-5V93c0-2.8-3-5-6.8-5Z" fill="#F2C94C"/></g><path d="M610 100.8c0-3.8-4-6.8-9-6.8s-9 3-9 6.8c0 2.3 1.6 4.4 4 5.6v1.9c0 1 .8 1.8 2 2v.2c0 1.3 1.3 2.3 3 2.3s3-1 3-2.3v-.1c1.2-.3 2-1.2 2-2.1v-2c2.4-1.1 4-3.2 4-5.5Zm-16 0c0-3 3.1-5.3 7-5.3s7 2.3 7 5.3c0 2.6-2.6 4.8-6 5.1v-1.8l1.7-1.3c.4-.3.4-.8 0-1-.4-.4-1-.4-1.4 0l-1.3 1-1.3-1c-.4-.4-1-.4-1.4 0-.4.2-.4.7 0 1l1.7 1.3v1.8c-3.4-.3-6-2.5-6-5.1Zm7 10.5c-.6 0-1-.3-1-.8h2c0 .5-.4.8-1 .8Zm3-3c0 .4-.4.7-1 .7h-4c-.6 0-1-.3-1-.7V107a12.3 12.3 0 0 0 6 0v1.2Z" fill="#fff"/><g filter="url(#f)"><path d="M394.3 88h-27.4c-3.8 0-6.9 2.3-6.9 5.1v20.5c0 2.8 3 5 6.9 5h27.4c3.8 0 6.8-2.2 6.8-5V93c0-2.8-3-5-6.8-5Z" fill="#F58A8A"/></g><g clip-path="url(#g)"><path d="M387 100h-1v-1.5c0-2-2.2-3.7-5-3.7s-5 1.6-5 3.7v1.5h-1c-1.1 0-2 .7-2 1.5v7.5c0 .8.9 1.5 2 1.5h12c1.1 0 2-.7 2-1.5v-7.5c0-.8-.9-1.5-2-1.5Zm-6 6.8c-1.1 0-2-.7-2-1.5 0-.9.9-1.5 2-1.5s2 .6 2 1.5c0 .8-.9 1.5-2 1.5Zm3.1-6.8h-6.2v-1.5c0-1.3 1.4-2.3 3.1-2.3 1.7 0 3.1 1 3.1 2.3v1.5Z" fill="#fff"/></g><g filter="url(#h)"><path d="M568.3 10.8h-27.4c-3.8 0-6.9 2.2-6.9 5v20.5c0 2.8 3 5.1 6.9 5.1h27.4c3.8 0 6.8-2.3 6.8-5.1V15.9c0-2.9-3-5.1-6.8-5.1Z" fill="#6FCF97"/></g><path d="M560.3 22H544v7.6h16.3v-7.7ZM564.7 23.5l-3.6 1V27l3.6 1h1.3v-4.5h-1.3Z" fill="#fff"/><path d="M500.4 217c-1.1 4.4.4 6.9 1.6 7.5l5 2.8s16.4 28.1 21.2 30.1a88 88 0 0 0 18.2 3.6l5.6-11.1-18.3-4c-3.7-.8-20.2-18.6-20.2-18.6l3.2-5.6h-6c-4.4-3.2-6.7-9.7-6.7-9.7s-2.8 2-3.6 5Z" fill="url(#i)"/><path d="M565.5 267.5c-2-2-13.5-5.2-19-6.5l5.5-11c2.1 0 8.5-.5 16.5-2.5 10-2.5 13.5-11.5 25-2 9.2 7.6 25.1 40.8 32 56.5a55.2 55.2 0 0 1-32 16.5c-.9-1.7-3.3-7.3-6.5-16.5-4-11.5-16.5-11.5-18.5-15.5s-.5-16.5-3-19Z" fill="url(#j)"/><path d="M601.5 381c-3.6-8-3.7-46-5-63.5a47.1 47.1 0 0 0 29-16s17 8 16 26.5 6.5 27.8 11 34c4 5.5 13.5 17.2 18.5 25l-5 9.5c-5.5-5.8-21.6-17.7-30-24.5-8.4-6.8-11.2-23.8-12.5-33-.9 9.7-5 27.4-3 33 2 5.6 23.5 22.5 32 31l-3 8.5c-14.5-6.8-44.4-22.5-48-30.5Z" fill="url(#k)"/><path d="M559.5 233.5c.4-1.6-.2-6.3.5-8 4.8.8 7.5 4.2 8.5 5.5 1-.2 2.4-.6 3 .5.5 1 0 3-1.5 4.5l3.5 9.5a15 15 0 0 1-4.5 2c1-2.5.5-4.5 0-5.5-3.6 2.8-5 2.7-6.5 2.5L561 238l-2.5.5c.5-.8.6-3.4 1-5Z" fill="url(#l)"/><path d="M568.5 231c-2-2.8-6.9-4.8-9-5.5-4-3-2-9.5 7.5-12.5s13.5 5 15.5 7 3 8.5 12 12.5 8.5-1 14-1 8 3.5 7 6.5-1.5 6.5 4.5 10.5.5 9.5 0 15.5-8.5 3-17 3-7 0-8.5-5.5-4-7.5-7-9-10-.5-11.5-2a87.5 87.5 0 0 1-6-14.5c.6-1 1.9-3.3 1.5-4.5-.4-1.2-2.2-.8-3-.5Z" fill="#F2994A"/><path d="m549.5 291.5 24-1.5c2.8.4 7.5 3.8 9.5 5.5-.7 1.5-2.6 4.5-5 4.5s-20-3-28.5-4.5h-2V288l2 3.5Z" fill="url(#m)"/><path d="M547.5 299v-17H539v17h8.5Z" fill="#F2C94C"/><path d="M666 425.5a87.9 87.9 0 0 1-16.5-14l3-8.5c2 .8 6.2 2.3 7 3.5 1 1.5 9.5 19.5 6.5 19ZM678 414.5c-1.2-2-8.5-11.7-12-18l5-9.5c2.3 2 2.5 2 5 5.5 1.1 1.6 3.5 24.5 2 22Z" fill="#5A98D0"/><path opacity=".2" d="m626.5 324.5-3 15c.5 5.5 3.5 19 8.5 28.5-6-19-4-33.2-5.5-43.5Z" fill="#000"/><path d="m196 549-1.5-5 8-1.5c3.8 2 11.2 6.4 10 8-.4.8-11.2-.7-16.5-1.5ZM155.5 502l4.5 7.5c-.3 5.2-1.4 15.3-3 14.5a97 97 0 0 1-9-20l7.5-2Z" fill="#D06262"/><path d="M129.3 457a72.6 72.6 0 0 1-11.9-20.5c5.1-2.5 16.5-8.1 21-11 4.6-2.8 13.3-9.2 17-12 2.2 1.9 8.6 6.8 16.6 10.4 20.5 9.7 32.1 22.2 36.2 33.4 3.2 9-10 22.1-17.5 27.7-4.4-7.4-7-10.4-12.2-17.5l1.8-8.2-10.4-3 14.4 19.2c14 17.6 18.9 47.7 19.6 60.5-2.6.6-9.1 1.6-14 1.3-.5-6.3-8.3-20-15.8-32.3-1.5 1.8-3.6 4-4.8 4-6.2-1.8-8.1-10-8.3-13.7l4.6-4-1.7-2.8c-7.7-12.4-28-24.6-34.6-31.5Z" fill="#1F3F68"/><path d="M157.3 412.2c-14.5 11.3-44.6 31.4-48.6 22-5.1-11.5-4.1-11.6-7-14.8-2.7-3.3-3.4-10.8-4.7-13.7-.6-1.4-5.8-7.8-9.9-15.6l-.3-.7c-3-5.7-5.3-12-4.9-18 .3-8.5 6.8-14 6.8-14 3.9-4.1 7.5-4.8 8.8-4.7 3 2 7.5 5.1 9.1 5 1.6-.2 3.9-3.2 5.4-4.7 7.6.8 10-1.1 15.9-.3 7.3 1 27.1 11.3 42.6-16.2 1.5.4 5 1.7 7.5 1.5-8.5 25-16 32.8-23 35.2a37.7 37.7 0 0 1-13 2.4c-.6 3.3-1.4 8.6-2.7 14 2.8 5.2 5.7 9.9 8 12 6 5.5 12.9 8.5 10 10.6Z" fill="#fff"/><path d="m157 441.9 13.5 14.8 9.8 2.6-.6 4.6c2.2-2.9 5.1-9.8-1.4-14.4-6.4-4.7-16.8-7-21.2-7.6ZM165.6 491.3l8.3 13.8-1.3 1.6c-1.3-2.4-4.5-4.6-7.2-6.8-2.2-1.8-2.6-5-2.6-6.3l2.8-2.3ZM127 416c-14.1-1.5-31.4-16.3-38.3-23.6 15.9 14.1 34.3 18 40.2 16 4.6-1.7 8.2-13.9 10.1-18.9l3.8 6.5c.7 7.3-1.5 21.5-15.7 20ZM122 387.9c-3.2.6-11.3-6.3-15-9.7 13.5 9.8 13.5 4.8 30.5-7.2-.7 1-8 15.5-15.5 16.9Z" fill="#000" fill-opacity=".2"/><path d="M142.5 373.5a10 10 0 0 1-5-2.5l1.5-3.5c-.2-.8-.4-2.7 0-3.5.4-.8 2-1.7 2.5-2l-.5 2.5 2.5-3 4 3.5-.5 3.5-3 1.5-1.5 3.5ZM179 333l-1 5a19 19 0 0 1-7.5-1.5c.5-1.5 2.1-5.5 2.5-7.5.4-2 4.2-4.2 6-5h2l-2 3.5v5.5Z" fill="#F2994A"/><path d="M95 342.5c.8 1.6 3 5 4 6.5.7-1.3 1.6-4.3 0-5.5-1.6-1.2-3-3.2-3.5-4 .5-.3 1.8-1 3-1-.8-6 3.3-8.2 5.5-8.5l8.5-.5.5 2.5c3.2-3 8.9-9.5 6.5-11.5-3-2.5-12 4-18 4s-8.5 3-10 6 2.5 10 3.5 12Z" fill="#316099"/><path d="M106.5 358c-1.6 0-6.2-3.2-9-5 1.3-.7 2-3.2 2-4 0-1 1-5 0-5.5s-4-2.5-4-3.5c0-.8 2-1 3-1-.3-1.7-.4-5.5 2-7.5s9-2.2 12-2l2 9.5c1.2 6-1.5 8.8-3 9.5l.5 4.5c-1.2 1.5-3.9 5-5.5 5Z" fill="#F2994A"/><path d="m202.5 542.5-.5-6c-3.5 1-5.6 1.1-9.5 1l2 6.5 8-1.5ZM160 509.5l6-2a18 18 0 0 1-4.5-8l-6 2.5 4.5 7.5Z" fill="#98C3E8"/><rect opacity=".8" x="187" y="262" width="266.3" height="189.3" rx="5" fill="url(#n)"/><path d="M187 267a5 5 0 0 1 5-5h72v189.3h-72a5 5 0 0 1-5-5V267Z" fill="#fff"/><circle cx="199" cy="274" r="4" fill="#FA9595"/><circle cx="212" cy="274" r="4" fill="#FDF397"/><circle cx="224" cy="274" r="4" fill="#C1FEBB"/><path opacity=".4" fill-rule="evenodd" clip-rule="evenodd" d="M196 368h58v7h-58v-7Zm0 14h58v7h-58v-7Zm39 16h-39v7h39v-7Z" fill="#5A98D0"/><path opacity=".1" fill-rule="evenodd" clip-rule="evenodd" d="M373 287h58v7h-58v-7Zm0 14h58v7h-58v-7Zm39 16h-39v7h39v-7Z" fill="#000"/><g filter="url(#o)"><rect x="179" y="288" width="81" height="50" rx="5" fill="#56CCF2"/></g><path d="M203.3 310.1a3.3 3.3 0 0 0-2.8-1.3c-1 0-2 .4-2.8 1.2-.8.8-1.1 1.8-1.1 3s.3 2.2 1.1 3c.8.8 1.7 1.2 2.8 1.2 1.3 0 2.2-.4 2.8-1.4v1.2h1.8v-8h-1.8v1.1Zm-4.3 4.7c-.5-.5-.7-1-.7-1.8a2.5 2.5 0 0 1 2.5-2.6c.7 0 1.3.3 1.8.8s.7 1 .7 1.8c0 .7-.2 1.3-.7 1.8-.5.5-1 .8-1.8.8-.7 0-1.3-.3-1.8-.8Zm13-9.2c-2.3-.2-3.5 1-3.5 3.2v.2h-1.3v1.7h1.3v6.3h1.7v-6.3h1.9V309h-2v-.2c0-1.1.7-1.7 2-1.5v-1.7Zm3.6 3.4H214v8h1.7v-4c0-.8.3-1.4.8-1.8.4-.4 1-.5 1.7-.5V309c-1.2 0-2 .5-2.5 1.4V309Zm6.2-1.5a1 1 0 0 0 0-1.6 1 1 0 0 0-1.6 0 1 1 0 0 0 0 1.6 1 1 0 0 0 1.6 0Zm0 9.5v-8h-1.6v8h1.7Zm9.2-6.9a3.3 3.3 0 0 0-2.8-1.3c-1 0-2 .4-2.8 1.2-.8.8-1.2 1.8-1.2 3s.4 2.2 1.2 3c.8.8 1.7 1.2 2.8 1.2 1.2 0 2.2-.4 2.8-1.4v1.2h1.8v-8H231v1.1Zm-4.3 4.7c-.5-.5-.7-1-.7-1.8a2.5 2.5 0 0 1 2.5-2.6c.7 0 1.3.3 1.8.8s.7 1 .7 1.8c0 .7-.2 1.3-.7 1.8-.5.5-1 .8-1.8.8-.7 0-1.3-.3-1.8-.8Zm13-6c-1 0-1.9.4-2.4 1.2v-1h-1.7v8h1.7v-4.3c0-1.5.8-2.3 2-2.3 1.1 0 1.8.7 1.8 1.9v4.7h1.8v-5c0-2-1.3-3.2-3.1-3.2Z" fill="#fff"/><rect x="281" y="280" width="79" height="77" rx="5" fill="#EB5757"/><g clip-path="url(#p)"><path d="M312 305v28l22-14-22-14Z" fill="#fff"/></g><g filter="url(#q)"><rect x="281" y="370" width="154" height="63" rx="5" fill="#6FCF97"/></g><path d="M294.5 415c9.5-6.5 13.5-15 31.5-15s19.6 10 30.5 10c13 0 25.5-19.5 39.5-19.5s17.5 10 25 10.5" stroke="#000" stroke-opacity=".1" stroke-width="2" stroke-linecap="round" stroke-linejoin="round"/><path d="M294 415.5c9.5-6.5 12-25.5 30-25.5s22 16.5 33 16.5c13 0 24.5-27 38.5-27s18.5 21 26 21.5" stroke="#fff" stroke-width="2" stroke-linecap="round" stroke-linejoin="round"/><defs><linearGradient id="b" x1="375.6" y1="-62.3" x2="337.8" y2="608.5" gradientUnits="userSpaceOnUse"><stop stop-color="#D1ECFF"/><stop offset="1" stop-color="#1070B1"/></linearGradient><linearGradient id="i" x1="559.7" y1="224.6" x2="508" y2="258.4" gradientUnits="userSpaceOnUse"><stop stop-color="#FFF8E1"/><stop offset="1" stop-color="#FFCC80"/></linearGradient><linearGradient id="j" x1="586" y1="241.2" x2="586" y2="318.5" gradientUnits="userSpaceOnUse"><stop stop-color="#AF6CED"/><stop offset="1" stop-color="#5E199D"/></linearGradient><linearGradient id="k" x1="633.7" y1="301.5" x2="633.7" y2="411.5" gradientUnits="userSpaceOnUse"><stop stop-color="#EB5757"/><stop offset="1" stop-color="#872727"/></linearGradient><linearGradient id="l" x1="575.7" y1="231.1" x2="557.6" y2="238.8" gradientUnits="userSpaceOnUse"><stop stop-color="#FFF8E1"/><stop offset="1" stop-color="#FFCC80"/></linearGradient><linearGradient id="m" x1="588.3" y1="291.1" x2="576.6" y2="312.4" gradientUnits="userSpaceOnUse"><stop stop-color="#FFF8E1"/><stop offset="1" stop-color="#FFCC80"/></linearGradient><linearGradient id="n" x1="193.4" y1="331.2" x2="498.9" y2="364.7" gradientUnits="userSpaceOnUse"><stop offset=".1" stop-color="#fff"/><stop offset="1" stop-color="#fff" stop-opacity=".8"/></linearGradient><filter id="c" x="403" y="84" width="188" height="188" filterUnits="userSpaceOnUse" color-interpolation-filters="sRGB"><feFlood flood-opacity="0" result="BackgroundImageFix"/><feColorMatrix in="SourceAlpha" values="0 0 0 0 0 0 0 0 0 0 0 0 0 0 0 0 0 0 127 0" result="hardAlpha"/><feOffset/><feGaussianBlur stdDeviation="25"/><feColorMatrix values="0 0 0 0 0.0627451 0 0 0 0 0.439216 0 0 0 0 0.694118 0 0 0 0.25 0"/><feBlend in2="BackgroundImageFix" result="effect1_dropShadow"/><feBlend in="SourceGraphic" in2="effect1_dropShadow" result="shape"/></filter><filter id="d" x="396.1" y=".8" width="71.1" height="60.6" filterUnits="userSpaceOnUse" color-interpolation-filters="sRGB"><feFlood flood-opacity="0" result="BackgroundImageFix"/><feColorMatrix in="SourceAlpha" values="0 0 0 0 0 0 0 0 0 0 0 0 0 0 0 0 0 0 127 0" result="hardAlpha"/><feOffset dx="5" dy="5"/><feGaussianBlur stdDeviation="7.5"/><feColorMatrix values="0 0 0 0 0 0 0 0 0 0 0 0 0 0 0 0 0 0 0.15 0"/><feBlend in2="BackgroundImageFix" result="effect1_dropShadow"/><feBlend in="SourceGraphic" in2="effect1_dropShadow" result="shape"/></filter><filter id="e" x="570" y="78" width="71.1" height="60.6" filterUnits="userSpaceOnUse" color-interpolation-filters="sRGB"><feFlood flood-opacity="0" result="BackgroundImageFix"/><feColorMatrix in="SourceAlpha" values="0 0 0 0 0 0 0 0 0 0 0 0 0 0 0 0 0 0 127 0" result="hardAlpha"/><feOffset dx="5" dy="5"/><feGaussianBlur stdDeviation="7.5"/><feColorMatrix values="0 0 0 0 0 0 0 0 0 0 0 0 0 0 0 0 0 0 0.15 0"/><feBlend in2="BackgroundImageFix" result="effect1_dropShadow"/><feBlend in="SourceGraphic" in2="effect1_dropShadow" result="shape"/></filter><filter id="f" x="350" y="78" width="71.1" height="60.6" filterUnits="userSpaceOnUse" color-interpolation-filters="sRGB"><feFlood flood-opacity="0" result="BackgroundImageFix"/><feColorMatrix in="SourceAlpha" values="0 0 0 0 0 0 0 0 0 0 0 0 0 0 0 0 0 0 127 0" result="hardAlpha"/><feOffset dx="5" dy="5"/><feGaussianBlur stdDeviation="7.5"/><feColorMatrix values="0 0 0 0 0 0 0 0 0 0 0 0 0 0 0 0 0 0 0.15 0"/><feBlend in2="BackgroundImageFix" result="effect1_dropShadow"/><feBlend in="SourceGraphic" in2="effect1_dropShadow" result="shape"/></filter><filter id="h" x="524" y=".8" width="71.1" height="60.6" filterUnits="userSpaceOnUse" color-interpolation-filters="sRGB"><feFlood flood-opacity="0" result="BackgroundImageFix"/><feColorMatrix in="SourceAlpha" values="0 0 0 0 0 0 0 0 0 0 0 0 0 0 0 0 0 0 127 0" result="hardAlpha"/><feOffset dx="5" dy="5"/><feGaussianBlur stdDeviation="7.5"/><feColorMatrix values="0 0 0 0 0 0 0 0 0 0 0 0 0 0 0 0 0 0 0.15 0"/><feBlend in2="BackgroundImageFix" result="effect1_dropShadow"/><feBlend in="SourceGraphic" in2="effect1_dropShadow" result="shape"/></filter><filter id="o" x="174" y="283" width="101" height="70" filterUnits="userSpaceOnUse" color-interpolation-filters="sRGB"><feFlood flood-opacity="0" result="BackgroundImageFix"/><feColorMatrix in="SourceAlpha" values="0 0 0 0 0 0 0 0 0 0 0 0 0 0 0 0 0 0 127 0" result="hardAlpha"/><feOffset dx="5" dy="5"/><feGaussianBlur stdDeviation="5"/><feColorMatrix values="0 0 0 0 0.0627451 0 0 0 0 0.439216 0 0 0 0 0.694118 0 0 0 0.2 0"/><feBlend in2="BackgroundImageFix" result="effect1_dropShadow"/><feBlend in="SourceGraphic" in2="effect1_dropShadow" result="shape"/></filter><filter id="q" x="271" y="364" width="174" height="83" filterUnits="userSpaceOnUse" color-interpolation-filters="sRGB"><feFlood flood-opacity="0" result="BackgroundImageFix"/><feColorMatrix in="SourceAlpha" values="0 0 0 0 0 0 0 0 0 0 0 0 0 0 0 0 0 0 127 0" result="hardAlpha"/><feOffset dy="4"/><feGaussianBlur stdDeviation="5"/><feColorMatrix values="0 0 0 0 0.435294 0 0 0 0 0.811765 0 0 0 0 0.592157 0 0 0 0.2 0"/><feBlend in2="BackgroundImageFix" result="effect1_dropShadow"/><feBlend in="SourceGraphic" in2="effect1_dropShadow" result="shape"/></filter><clipPath id="g"><path fill="#fff" transform="translate(369 94)" d="M0 0h24v18H0z"/></clipPath><clipPath id="p"><path fill="#fff" transform="translate(296 295)" d="M0 0h48v48H0z"/></clipPath></defs></svg>